inDegrees=yes
name=ik_S50_A06_T01
DataType=double
version=3
OpenSimVersion=4.3-2021-08-27-4bc7ad9
endheader
time	pelvis_tilt	pelvis_list	pelvis_rotation	pelvis_tx	pelvis_ty	pelvis_tz	hip_flexion_r	hip_adduction_r	hip_rotation_r	knee_angle_r	knee_angle_r_beta	ankle_angle_r	subtalar_angle_r	mtp_angle_r	hip_flexion_l	hip_adduction_l	hip_rotation_l	knee_angle_l	knee_angle_l_beta	ankle_angle_l	subtalar_angle_l	mtp_angle_l	lumbar_extension	lumbar_bending	lumbar_rotation	arm_flex_r	arm_add_r	arm_rot_r	elbow_flex_r	pro_sup_r	wrist_flex_r	wrist_dev_r	arm_flex_l	arm_add_l	arm_rot_l	elbow_flex_l	pro_sup_l	wrist_flex_l	wrist_dev_l
0	0	0	0	0	0.9399999999999999	0	0	0	0	0	0	0	0	0	0	0	0	0	0	0	0	0	0	0	0	0	0	0	0	89.99999999963507	0	0	0	0	0	0	89.99999999869995	0	0
0.02	-5.429018251130628	-0.6963150482286355	27.36902817600975	0	0.9399999999999999	0	3.339522555279241	-1.573770773000508	-1.125664482815955	5.165703694300443	0.09015853764797736	0	0	0	3.339522555279241	-1.573770773000508	-1.125664482815955	5.165703694300443	0.09015853764797736	0	0	0	-2.30813129161635	-3.186669601004502	5.668006811464982	8.119313536534076	-4.919327957249392	-6.070414389810443	60.58042444792724	107.3291135796218	0	0	10.52649154081072	-9.515181422314571	-7.930085669575628	63.49783773300953	128.1783879228096	0	0
0.04	-4.174068421428188	-0.8385820604869441	30.4863821023565	0	0.9399999999999999	0	38.92992270346328	-17.38602933240748	-13.08254541241199	46.37550695094578	0.8094052885755203	0	0	0	38.92992270346328	-17.38602933240748	-13.08254541241199	46.37550695094578	0.8094052885755203	0	0	0	-3.478324250745771	-2.290191798908852	2.60093985088669	8.11074458116566	-4.928811100500222	-6.057929445512893	60.58407417603491	107.3466545982489	0	0	10.52603045588493	-9.501171411164252	-7.943381937087039	63.46625865981576	128.2185801877474	0	0
0.06	-4.171376463662135	-0.8472705413627277	30.49535895397315	0	0.9399999999999999	0	38.9413375859598	-17.34235046500423	-13.07034332361815	46.3866550360623	0.8095998593660961	0	0	0	38.9413375859598	-17.34235046500423	-13.07034332361815	46.3866550360623	0.8095998593660961	0	0	0	-3.481051467366843	-2.29424246435582	2.600335633769145	8.123672600084763	-4.927447917992757	-6.0579793140892	60.60268080392299	107.3107666163707	0	0	10.54299920033669	-9.510906267897383	-7.927556324409428	63.48522102255461	128.1592815239537	0	0
0.08	-4.163810028784092	-0.8496260803379241	30.50084001892743	0	0.9399999999999999	0	38.9500631938969	-17.30960297654905	-13.06101156052826	46.39518812675673	0.8097487898940852	0	0	0	38.9500631938969	-17.30960297654905	-13.06101156052826	46.39518812675673	0.8097487898940852	0	0	0	-3.476239861198615	-2.296488042606347	2.599977737277209	8.133107564696456	-4.939010047881345	-6.075491972978664	60.60240952581766	107.2951742272684	0	0	10.52234010946713	-9.516842867639033	-7.944071770772806	63.4846029859991	128.1512434739447	0	0
0.1	-4.15367931489619	-0.8504065202564877	30.50142599043633	0	0.9399999999999999	0	38.96549285186324	-17.3181812600171	-13.05409236177208	46.4129438783757	0.8100586862210025	0	0	0	38.96549285186324	-17.3181812600171	-13.05409236177208	46.4129438783757	0.8100586862210025	0	0	0	-3.468972104808695	-2.294752692933083	2.598154952417578	8.111092998080412	-4.935525840006932	-6.062599695859261	60.60341190986336	107.2812250467084	0	0	10.51568759354132	-9.515656007784909	-7.931505993426934	63.48803282548528	128.1653759614001	0	0
0.12	-4.150675129523552	-0.8525626064118318	30.50483653310073	0	0.9399999999999999	0	38.9795690801169	-17.29631330807934	-13.04366869902241	46.428035819679	0.8103220902872629	0	0	0	38.9795690801169	-17.29631330807934	-13.04366869902241	46.428035819679	0.8103220902872629	0	0	0	-3.468518835627548	-2.291372102482819	2.592783937108677	8.113370756884933	-4.940959030764376	-6.076480243586546	60.58873453691393	107.3144915521728	0	0	10.52261151669233	-9.510628220080401	-7.943343905319403	63.46602233187791	128.1975309256744	0	0
0.14	-4.150481151329626	-0.8549503865939408	30.51037310423863	0	0.9399999999999999	0	38.99519862884004	-17.23771404071128	-13.02684716100345	46.44327803405231	0.8105881171133719	0	0	0	38.99519862884004	-17.23771404071128	-13.02684716100345	46.44327803405231	0.8105881171133719	0	0	0	-3.470502540564677	-2.286936950608367	2.588493401105903	8.101241112341656	-4.940895327920912	-6.077710739352933	60.58217035142375	107.3173895747203	0	0	10.542536217025	-9.516903179606835	-7.952449556773503	63.46188348256516	128.1975802693906	0	0
0.16	-4.146965566180472	-0.8623643132070865	30.52888716567587	0	0.9399999999999999	0	39.03037271569745	-17.15911765835577	-12.9969505341351	46.47966786060771	0.8112232394009933	0	0	0	39.03037271569745	-17.15911765835577	-12.9969505341351	46.47966786060771	0.8112232394009933	0	0	0	-3.473600877230779	-2.279430763497482	2.58351683773844	8.118335160774123	-4.95504026795362	-6.084630151109149	60.64202842677451	107.2457197462813	0	0	10.5214878787562	-9.521573383982481	-7.929093229552814	63.49583276001959	128.0990823060037	0	0
0.18	-4.140970703429773	-0.8614725513515309	30.53667132872219	0	0.9399999999999999	0	39.04958850521042	-17.15419976878835	-12.98597209972439	46.50100584925512	0.8115956575586437	0	0	0	39.04958850521042	-17.15419976878835	-12.98597209972439	46.50100584925512	0.8115956575586437	0	0	0	-3.46933713908728	-2.273027784381953	2.579772442333659	8.092232824588907	-4.967272675975931	-6.079548669212658	60.63748777678479	107.2554060697989	0	0	10.51922744789759	-9.533205093403193	-7.93113669835804	63.4888550869834	128.1258061692351	0	0
0.2	-4.14701718455736	-0.8701072935320406	30.53283498557116	0	0.9399999999999999	0	39.06243801391499	-17.10878044087019	-12.97280391268275	46.5137261619828	0.8118176688976251	0	0	0	39.06243801391499	-17.10878044087019	-12.97280391268275	46.5137261619828	0.8118176688976251	0	0	0	-3.479867232960596	-2.271505144131313	2.573401024203126	8.109188072217316	-4.968462851409655	-6.067125523671137	60.65753512521854	107.2400069428681	0	0	10.53787042681395	-9.550770427514573	-7.921576844483769	63.50752234464734	128.089493925075	0	0
0.22	-4.137674295883102	-0.8710384526877217	30.53852293948459	0	0.9399999999999999	0	39.06842233612473	-17.08971952653794	-12.96695106055765	46.51973214554278	0.8119224930855674	0	0	0	39.06842233612473	-17.08971952653794	-12.96695106055765	46.51973214554278	0.8119224930855674	0	0	0	-3.472553672217961	-2.274381280286764	2.570492535405628	8.096900694981835	-4.957906462544076	-6.072540821830616	60.63144231678717	107.269382016753	0	0	10.51700902941153	-9.54487878852569	-7.925059993738892	63.4970533408585	128.1415122604229	0	0
